%TF.GenerationSoftware,Altium Limited,Altium Designer,23.3.1 (30)*%
G04 Layer_Color=16711935*
%FSLAX25Y25*%
%MOIN*%
%TF.SameCoordinates,3F8D0E0F-F656-4E3B-87BE-8AFF8012C70A*%
%TF.FilePolarity,Positive*%
%TF.FileFunction,Other,Top_3D_Body*%
%TF.Part,Single*%
G01*
G75*
%TA.AperFunction,NonConductor*%
%ADD36C,0.00787*%
%ADD38C,0.00591*%
%ADD42C,0.00394*%
D36*
X308748Y285244D02*
Y295756D01*
X287252D02*
X308748D01*
X287252Y285244D02*
Y295756D01*
Y285244D02*
X308748D01*
X286752Y304244D02*
Y314756D01*
Y304244D02*
X308248D01*
Y314756D01*
X286752D02*
X308248D01*
X271248Y302744D02*
Y313256D01*
X249752D02*
X271248D01*
X249752Y302744D02*
Y313256D01*
Y302744D02*
X271248D01*
X189252Y423744D02*
Y434256D01*
Y423744D02*
X210748D01*
Y434256D01*
X189252D02*
X210748D01*
X179244Y396252D02*
X189756D01*
Y417748D01*
X179244D02*
X189756D01*
X179244Y396252D02*
Y417748D01*
X352752Y437744D02*
X374248D01*
X352752D02*
Y448256D01*
X374248D01*
Y437744D02*
Y448256D01*
D38*
X398496Y389500D02*
G03*
X398496Y389500I-11496J0D01*
G01*
D42*
X245524Y337370D02*
G03*
X245524Y337370I-1969J0D01*
G01*
X240012Y333827D02*
X378988D01*
X240012Y362173D02*
X378988D01*
X240012Y333827D02*
Y362173D01*
X378988Y333827D02*
Y362173D01*
X238531Y394421D02*
Y434579D01*
X220028Y394421D02*
Y434579D01*
Y394421D02*
X238531D01*
X220028Y434579D02*
X238531D01*
X225342Y394421D02*
Y434579D01*
%TF.MD5,d225bf81b76331949a4ebbaecae9baf0*%
M02*
