%TF.GenerationSoftware,Altium Limited,Altium Designer,23.3.1 (30)*%
G04 Layer_Color=16711935*
%FSLAX25Y25*%
%MOIN*%
%TF.SameCoordinates,3F8D0E0F-F656-4E3B-87BE-8AFF8012C70A*%
%TF.FilePolarity,Negative*%
%TF.FileFunction,Soldermask,Bot*%
%TF.Part,Single*%
G01*
G75*
%TA.AperFunction,ComponentPad*%
%ADD13C,0.06181*%
%ADD14R,0.06181X0.06181*%
%ADD19R,0.06181X0.06181*%
%ADD20C,0.04331*%
%ADD21R,0.04331X0.04331*%
%TA.AperFunction,ViaPad*%
%ADD26C,0.06591*%
%TA.AperFunction,ComponentPad*%
%ADD27C,0.05709*%
%ADD28C,0.05315*%
%ADD29R,0.05315X0.05315*%
%ADD30C,0.06102*%
%ADD31R,0.05315X0.05315*%
%ADD32C,0.06890*%
%ADD33R,0.06496X0.06496*%
%ADD34C,0.06496*%
%ADD35R,0.06890X0.06890*%
D13*
X293000Y290500D02*
D03*
X302500Y309500D02*
D03*
X255500Y308000D02*
D03*
X205000Y429000D02*
D03*
X184500Y412000D02*
D03*
X358500Y443000D02*
D03*
D14*
X303000Y290500D02*
D03*
X292500Y309500D02*
D03*
X265500Y308000D02*
D03*
X195000Y429000D02*
D03*
X368500Y443000D02*
D03*
D19*
X184500Y402000D02*
D03*
D20*
X382000Y389500D02*
D03*
X387000Y384500D02*
D03*
D21*
Y394500D02*
D03*
D26*
X154000Y274500D02*
D03*
Y458000D02*
D03*
X425000Y274500D02*
D03*
Y458000D02*
D03*
D27*
X323898Y318000D02*
D03*
X336102D02*
D03*
D28*
X355500Y293500D02*
D03*
X325500D02*
D03*
X272500Y399000D02*
D03*
X203000Y357500D02*
D03*
X376500Y294000D02*
D03*
X406500D02*
D03*
D29*
X272500Y429000D02*
D03*
D30*
X163500Y406000D02*
D03*
Y436000D02*
D03*
X342000Y429500D02*
D03*
X312000D02*
D03*
X314500Y399500D02*
D03*
X344500D02*
D03*
X208000Y310000D02*
D03*
X178000D02*
D03*
D31*
X173000Y357500D02*
D03*
D32*
X359000Y427500D02*
D03*
Y417500D02*
D03*
X230500Y414500D02*
D03*
Y424500D02*
D03*
D33*
X244500Y333000D02*
D03*
D34*
X254500D02*
D03*
X264500D02*
D03*
X274500D02*
D03*
X284500D02*
D03*
X294500D02*
D03*
X304500D02*
D03*
X314500D02*
D03*
X324500D02*
D03*
X334500D02*
D03*
X344500D02*
D03*
X354500D02*
D03*
X364500D02*
D03*
X374500D02*
D03*
X244500Y363000D02*
D03*
X254500D02*
D03*
X264500D02*
D03*
X274500D02*
D03*
X284500D02*
D03*
X294500D02*
D03*
X304500D02*
D03*
X314500D02*
D03*
X324500D02*
D03*
X334500D02*
D03*
X344500D02*
D03*
X354500D02*
D03*
X364500D02*
D03*
X374500D02*
D03*
D35*
X230500Y404500D02*
D03*
%TF.MD5,635876e50c6ff017e97a396c2340fe55*%
M02*
