%TF.GenerationSoftware,Altium Limited,Altium Designer,23.3.1 (30)*%
G04 Layer_Color=32768*
%FSLAX25Y25*%
%MOIN*%
%TF.SameCoordinates,3F8D0E0F-F656-4E3B-87BE-8AFF8012C70A*%
%TF.FilePolarity,Positive*%
%TF.FileFunction,Other,Top_Courtyard*%
%TF.Part,Single*%
G01*
G75*
%TA.AperFunction,NonConductor*%
%ADD36C,0.00787*%
%ADD42C,0.00394*%
%ADD43C,0.00197*%
D36*
X309142Y284850D02*
Y296150D01*
X286858D02*
X309142D01*
X286858Y284850D02*
Y296150D01*
Y284850D02*
X309142D01*
X286358Y303850D02*
Y315150D01*
Y303850D02*
X308642D01*
Y315150D01*
X286358D02*
X308642D01*
X271642Y302350D02*
Y313650D01*
X249358D02*
X271642D01*
X249358Y302350D02*
Y313650D01*
Y302350D02*
X271642D01*
X188858Y423350D02*
Y434650D01*
Y423350D02*
X211142D01*
Y434650D01*
X188858D02*
X211142D01*
X178850Y395858D02*
X190150D01*
Y418142D01*
X178850D02*
X190150D01*
X178850Y395858D02*
Y418142D01*
X375110Y377610D02*
X398890D01*
Y401390D01*
X375110D02*
X398890D01*
X375110Y377610D02*
Y401390D01*
X352358Y437350D02*
X374642D01*
X352358D02*
Y448650D01*
X374642D01*
Y437350D02*
Y448650D01*
D42*
X309500Y346031D02*
Y349969D01*
X307531Y348000D02*
X311469D01*
X228532Y414500D02*
X232469D01*
X230500Y412532D02*
Y416468D01*
D43*
X239516Y393437D02*
Y435563D01*
X219043Y393437D02*
Y435563D01*
Y393437D02*
X239516D01*
X219043Y435563D02*
X239516D01*
%TF.MD5,146eff1492fd224c4e78934b417e87b1*%
M02*
