%TF.GenerationSoftware,Altium Limited,Altium Designer,23.3.1 (30)*%
G04 Layer_Color=65535*
%FSLAX25Y25*%
%MOIN*%
%TF.SameCoordinates,3F8D0E0F-F656-4E3B-87BE-8AFF8012C70A*%
%TF.FilePolarity,Positive*%
%TF.FileFunction,Legend,Top*%
%TF.Part,Single*%
G01*
G75*
%TA.AperFunction,NonConductor*%
%ADD36C,0.00787*%
%ADD37C,0.00984*%
%ADD38C,0.00591*%
%ADD39C,0.00500*%
%ADD40C,0.02362*%
%ADD41C,0.01000*%
D36*
X325452Y313976D02*
G03*
X334682Y314040I4588J4024D01*
G01*
X334643Y321960D02*
G03*
X325413Y322024I-4643J-3960D01*
G01*
X302500Y414000D02*
G03*
X302500Y414000I-30000J0D01*
G01*
X218000Y357500D02*
G03*
X218000Y357500I-30000J0D01*
G01*
X239815Y345500D02*
G03*
X239815Y350500I0J2500D01*
G01*
X308748Y285244D02*
Y295756D01*
X287252D02*
X308748D01*
X287252Y285244D02*
Y295756D01*
Y285244D02*
X308748D01*
X363000Y286000D02*
Y301000D01*
X318000Y286000D02*
X363000D01*
X318000D02*
Y301000D01*
X363000D01*
X286752Y304244D02*
Y314756D01*
Y304244D02*
X308248D01*
Y314756D01*
X286752D02*
X308248D01*
X271248Y302744D02*
Y313256D01*
X249752D02*
X271248D01*
X249752Y302744D02*
Y313256D01*
Y302744D02*
X271248D01*
X163500Y411000D02*
X166500D01*
Y431000D01*
X160500D02*
X166500D01*
X160500Y411000D02*
Y431000D01*
Y411000D02*
X163500D01*
Y431000D02*
Y431900D01*
Y410100D02*
Y411000D01*
X189252Y423744D02*
Y434256D01*
Y423744D02*
X210748D01*
Y434256D01*
X189252D02*
X210748D01*
X179244Y396252D02*
X189756D01*
Y417748D01*
X179244D02*
X189756D01*
X179244Y396252D02*
Y417748D01*
X393531Y398953D02*
X395557Y400980D01*
X396453Y396031D02*
X398480Y398058D01*
X395557Y400980D02*
X398480Y398058D01*
X337000Y429500D02*
Y432500D01*
X317000D02*
X337000D01*
X317000Y426500D02*
Y432500D01*
Y426500D02*
X337000D01*
Y429500D01*
X316100D02*
X317000D01*
X337000D02*
X337900D01*
X239815Y337567D02*
X379185D01*
X239815Y358433D02*
X379185D01*
X239815Y337567D02*
Y345500D01*
Y350500D02*
Y358433D01*
X379185Y337567D02*
Y358433D01*
X220028Y394421D02*
X238531D01*
X220028Y434579D02*
X238531D01*
Y394421D02*
Y434579D01*
X220028Y394421D02*
Y434579D01*
X221996Y394421D02*
Y434579D01*
X339500Y399500D02*
X340400D01*
X318600D02*
X319500D01*
X339500Y396500D02*
Y399500D01*
X319500Y396500D02*
X339500D01*
X319500D02*
Y402500D01*
X339500D01*
Y399500D02*
Y402500D01*
X182100Y310000D02*
X183000D01*
X203000D02*
X203900D01*
X183000D02*
Y313000D01*
X203000D01*
Y307000D02*
Y313000D01*
X183000Y307000D02*
X203000D01*
X183000D02*
Y310000D01*
X352752Y437744D02*
X374248D01*
X352752D02*
Y448256D01*
X374248D01*
Y437744D02*
Y448256D01*
X369000Y301500D02*
X414000D01*
X369000Y286500D02*
Y301500D01*
Y286500D02*
X414000D01*
Y301500D01*
D37*
X310795Y290500D02*
G03*
X310795Y290500I-492J0D01*
G01*
X285689Y309500D02*
G03*
X285689Y309500I-492J0D01*
G01*
X273295Y308000D02*
G03*
X273295Y308000I-492J0D01*
G01*
X188189Y429000D02*
G03*
X188189Y429000I-492J0D01*
G01*
X184992Y394697D02*
G03*
X184992Y394697I-492J0D01*
G01*
X239874Y333000D02*
G03*
X239874Y333000I-492J0D01*
G01*
X230992Y391862D02*
G03*
X230992Y391862I-492J0D01*
G01*
X376295Y443000D02*
G03*
X376295Y443000I-492J0D01*
G01*
D38*
X398496Y389500D02*
G03*
X398496Y389500I-11496J0D01*
G01*
X272449Y446015D02*
Y449951D01*
X270481Y447983D02*
X274417D01*
X155985Y357449D02*
X152049D01*
X154017Y355481D02*
Y359417D01*
D39*
X380654Y416791D02*
G03*
X380654Y428209I0J5709D01*
G01*
X351126Y413839D02*
Y431161D01*
X376323D01*
Y413839D02*
Y431161D01*
X351126Y413839D02*
X376323D01*
Y428209D02*
X380654D01*
X376323Y416791D02*
X380654D01*
D40*
X244933Y341504D02*
G03*
X244933Y341504I-1181J0D01*
G01*
D41*
X311501Y326499D02*
Y325499D01*
X313501Y323500D01*
X315500Y325499D01*
Y326499D01*
X313501Y323500D02*
Y320501D01*
X317499D02*
X319499D01*
X318499D01*
Y326499D01*
X317499Y325499D01*
X239400Y375398D02*
Y370400D01*
X240400Y369400D01*
X242399D01*
X243399Y370400D01*
Y375398D01*
X249397Y369400D02*
X245398D01*
X249397Y373399D01*
Y374398D01*
X248397Y375398D01*
X246398D01*
X245398Y374398D01*
X219900Y444698D02*
Y439700D01*
X220900Y438700D01*
X222899D01*
X223899Y439700D01*
Y444698D01*
X225898Y438700D02*
X227897D01*
X226898D01*
Y444698D01*
X225898Y443698D01*
X312300Y405900D02*
Y411898D01*
X315299D01*
X316299Y410898D01*
Y408899D01*
X315299Y407899D01*
X312300D01*
X314299D02*
X316299Y405900D01*
X321297D02*
Y411898D01*
X318298Y408899D01*
X322297D01*
X175800Y316400D02*
Y322398D01*
X178799D01*
X179799Y321398D01*
Y319399D01*
X178799Y318399D01*
X175800D01*
X177799D02*
X179799Y316400D01*
X181798Y321398D02*
X182798Y322398D01*
X184797D01*
X185797Y321398D01*
Y320399D01*
X184797Y319399D01*
X183797D01*
X184797D01*
X185797Y318399D01*
Y317400D01*
X184797Y316400D01*
X182798D01*
X181798Y317400D01*
X158002Y444001D02*
Y449999D01*
X161001D01*
X162000Y448999D01*
Y447000D01*
X161001Y446000D01*
X158002D01*
X160001D02*
X162000Y444001D01*
X167998D02*
X164000D01*
X167998Y448000D01*
Y448999D01*
X166999Y449999D01*
X164999D01*
X164000Y448999D01*
X308501Y447001D02*
Y452999D01*
X311500D01*
X312500Y451999D01*
Y450000D01*
X311500Y449000D01*
X308501D01*
X310501D02*
X312500Y447001D01*
X314499D02*
X316499D01*
X315499D01*
Y452999D01*
X314499Y451999D01*
X384000Y406501D02*
Y410499D01*
X383000Y411499D01*
X381001D01*
X380001Y410499D01*
Y406501D01*
X381001Y405501D01*
X383000D01*
X382001Y407500D02*
X384000Y405501D01*
X383000D02*
X384000Y406501D01*
X385999Y405501D02*
X387999D01*
X386999D01*
Y411499D01*
X385999Y410499D01*
X278000Y294499D02*
X276001D01*
X277001D01*
Y289501D01*
X276001Y288501D01*
X275001D01*
X274002Y289501D01*
X283998Y294499D02*
X281999Y293499D01*
X280000Y291500D01*
Y289501D01*
X280999Y288501D01*
X282999D01*
X283998Y289501D01*
Y290500D01*
X282999Y291500D01*
X280000D01*
X292500Y326999D02*
X290501D01*
X291501D01*
Y322001D01*
X290501Y321001D01*
X289501D01*
X288502Y322001D01*
X298498Y326999D02*
X294500D01*
Y324000D01*
X296499Y325000D01*
X297499D01*
X298498Y324000D01*
Y322001D01*
X297499Y321001D01*
X295499D01*
X294500Y322001D01*
X192000Y449999D02*
X190001D01*
X191001D01*
Y445001D01*
X190001Y444001D01*
X189001D01*
X188002Y445001D01*
X196999Y444001D02*
Y449999D01*
X194000Y447000D01*
X197998D01*
X245500Y322499D02*
X243501D01*
X244501D01*
Y317501D01*
X243501Y316501D01*
X242501D01*
X241502Y317501D01*
X247500Y321499D02*
X248499Y322499D01*
X250499D01*
X251498Y321499D01*
Y320500D01*
X250499Y319500D01*
X249499D01*
X250499D01*
X251498Y318500D01*
Y317501D01*
X250499Y316501D01*
X248499D01*
X247500Y317501D01*
X356999Y457998D02*
X354999D01*
X355999D01*
Y453000D01*
X354999Y452000D01*
X354000D01*
X353000Y453000D01*
X362997Y452000D02*
X358998D01*
X362997Y455999D01*
Y456998D01*
X361997Y457998D01*
X359998D01*
X358998Y456998D01*
X181500Y428499D02*
X179501D01*
X180500D01*
Y423501D01*
X179501Y422501D01*
X178501D01*
X177501Y423501D01*
X183499Y422501D02*
X185499D01*
X184499D01*
Y428499D01*
X183499Y427499D01*
X340501Y440499D02*
Y434501D01*
X343500D01*
X344500Y435501D01*
Y439499D01*
X343500Y440499D01*
X340501D01*
X346499Y434501D02*
X348499D01*
X347499D01*
Y440499D01*
X346499Y439499D01*
X321500Y308999D02*
X320501Y309999D01*
X318501D01*
X317502Y308999D01*
Y305001D01*
X318501Y304001D01*
X320501D01*
X321500Y305001D01*
X326499Y304001D02*
Y309999D01*
X323500Y307000D01*
X327498D01*
X373599Y309898D02*
X372599Y310898D01*
X370600D01*
X369600Y309898D01*
Y305900D01*
X370600Y304900D01*
X372599D01*
X373599Y305900D01*
X375598Y309898D02*
X376598Y310898D01*
X378597D01*
X379597Y309898D01*
Y308899D01*
X378597Y307899D01*
X377597D01*
X378597D01*
X379597Y306899D01*
Y305900D01*
X378597Y304900D01*
X376598D01*
X375598Y305900D01*
X155000Y395999D02*
X154001Y396999D01*
X152001D01*
X151002Y395999D01*
Y392001D01*
X152001Y391001D01*
X154001D01*
X155000Y392001D01*
X160998Y391001D02*
X157000D01*
X160998Y395000D01*
Y395999D01*
X159999Y396999D01*
X157999D01*
X157000Y395999D01*
X247099Y458498D02*
X246099Y459498D01*
X244100D01*
X243100Y458498D01*
Y454500D01*
X244100Y453500D01*
X246099D01*
X247099Y454500D01*
X249098Y453500D02*
X251097D01*
X250098D01*
Y459498D01*
X249098Y458498D01*
%TF.MD5,ceabe1b2644f90ca47a29a732d03a71f*%
M02*
