%TF.GenerationSoftware,Altium Limited,Altium Designer,23.3.1 (30)*%
G04 Layer_Color=16711935*
%FSLAX25Y25*%
%MOIN*%
%TF.SameCoordinates,3F8D0E0F-F656-4E3B-87BE-8AFF8012C70A*%
%TF.FilePolarity,Positive*%
%TF.FileFunction,Other,Top_Assembly*%
%TF.Part,Single*%
G01*
G75*
%TA.AperFunction,NonConductor*%
%ADD36C,0.00787*%
G36*
X297378Y290496D02*
X297407Y290493D01*
X297436Y290489D01*
X297512Y290475D01*
X297592Y290453D01*
X297676Y290420D01*
X297720Y290398D01*
X297760Y290373D01*
X297796Y290343D01*
X297833Y290311D01*
X297836Y290307D01*
X297840Y290303D01*
X297847Y290289D01*
X297858Y290274D01*
X297873Y290256D01*
X297887Y290231D01*
X297902Y290201D01*
X297920Y290169D01*
X297935Y290132D01*
X297949Y290089D01*
X297964Y290045D01*
X297978Y289994D01*
X297986Y289939D01*
X297996Y289878D01*
X298000Y289816D01*
Y289746D01*
X297698Y289703D01*
Y289706D01*
Y289714D01*
Y289728D01*
X297694Y289750D01*
X297691Y289772D01*
Y289797D01*
X297680Y289859D01*
X297669Y289925D01*
X297647Y289990D01*
X297625Y290049D01*
X297611Y290074D01*
X297592Y290096D01*
X297589Y290100D01*
X297574Y290111D01*
X297552Y290129D01*
X297523Y290147D01*
X297483Y290169D01*
X297440Y290183D01*
X297385Y290198D01*
X297327Y290201D01*
X297305D01*
X297283Y290198D01*
X297250Y290194D01*
X297217Y290187D01*
X297181Y290180D01*
X297145Y290165D01*
X297108Y290147D01*
X297105Y290143D01*
X297094Y290136D01*
X297079Y290122D01*
X297057Y290107D01*
X297039Y290081D01*
X297017Y290056D01*
X296999Y290027D01*
X296985Y289990D01*
Y289987D01*
X296977Y289972D01*
X296973Y289947D01*
X296966Y289914D01*
X296959Y289870D01*
X296955Y289816D01*
X296948Y289750D01*
Y289674D01*
Y287937D01*
X296613D01*
Y289655D01*
Y289659D01*
Y289670D01*
Y289685D01*
Y289706D01*
X296617Y289736D01*
Y289765D01*
X296624Y289834D01*
X296631Y289914D01*
X296646Y289998D01*
X296668Y290074D01*
X296693Y290147D01*
Y290151D01*
X296697Y290154D01*
X296708Y290176D01*
X296726Y290205D01*
X296751Y290245D01*
X296788Y290285D01*
X296828Y290329D01*
X296879Y290373D01*
X296937Y290409D01*
X296944Y290413D01*
X296966Y290424D01*
X296999Y290438D01*
X297046Y290453D01*
X297105Y290471D01*
X297170Y290486D01*
X297243Y290496D01*
X297323Y290500D01*
X297356D01*
X297378Y290496D01*
D02*
G37*
G36*
X295372D02*
X295401D01*
X295434Y290493D01*
X295470Y290486D01*
X295514Y290475D01*
X295558Y290464D01*
X295609Y290449D01*
X295659Y290431D01*
X295710Y290409D01*
X295765Y290380D01*
X295816Y290347D01*
X295867Y290311D01*
X295918Y290267D01*
X295965Y290216D01*
X295969Y290212D01*
X295976Y290201D01*
X295987Y290187D01*
X296002Y290161D01*
X296024Y290129D01*
X296042Y290092D01*
X296063Y290045D01*
X296085Y289994D01*
X296111Y289932D01*
X296133Y289863D01*
X296151Y289787D01*
X296169Y289703D01*
X296187Y289608D01*
X296198Y289506D01*
X296205Y289397D01*
X296209Y289281D01*
Y289277D01*
Y289273D01*
Y289262D01*
Y289248D01*
X296205Y289212D01*
Y289160D01*
X296202Y289102D01*
X296195Y289033D01*
X296187Y288957D01*
X296176Y288873D01*
X296162Y288789D01*
X296144Y288698D01*
X296122Y288611D01*
X296096Y288524D01*
X296063Y288440D01*
X296027Y288360D01*
X295987Y288283D01*
X295940Y288218D01*
X295936Y288214D01*
X295929Y288207D01*
X295914Y288192D01*
X295896Y288170D01*
X295874Y288149D01*
X295845Y288127D01*
X295809Y288098D01*
X295772Y288072D01*
X295729Y288047D01*
X295681Y288018D01*
X295627Y287996D01*
X295572Y287970D01*
X295510Y287952D01*
X295445Y287937D01*
X295376Y287930D01*
X295303Y287927D01*
X295274D01*
X295252Y287930D01*
X295226D01*
X295197Y287934D01*
X295128Y287948D01*
X295052Y287967D01*
X294971Y287996D01*
X294892Y288039D01*
X294851Y288065D01*
X294815Y288094D01*
X294811Y288098D01*
X294808Y288101D01*
X294797Y288112D01*
X294786Y288123D01*
X294768Y288141D01*
X294753Y288163D01*
X294713Y288214D01*
X294673Y288280D01*
X294637Y288360D01*
X294604Y288451D01*
X294582Y288553D01*
X294892Y288578D01*
Y288575D01*
X294895Y288571D01*
X294899Y288549D01*
X294910Y288516D01*
X294924Y288476D01*
X294939Y288433D01*
X294961Y288389D01*
X294986Y288349D01*
X295012Y288316D01*
X295019Y288309D01*
X295033Y288294D01*
X295059Y288272D01*
X295095Y288247D01*
X295143Y288225D01*
X295194Y288203D01*
X295255Y288189D01*
X295321Y288181D01*
X295346D01*
X295376Y288185D01*
X295408Y288192D01*
X295452Y288203D01*
X295496Y288218D01*
X295539Y288236D01*
X295583Y288265D01*
X295590Y288269D01*
X295609Y288283D01*
X295634Y288309D01*
X295667Y288345D01*
X295703Y288389D01*
X295743Y288440D01*
X295780Y288505D01*
X295816Y288578D01*
Y288582D01*
X295820Y288589D01*
X295823Y288600D01*
X295831Y288615D01*
X295834Y288636D01*
X295842Y288662D01*
X295849Y288691D01*
X295856Y288727D01*
X295867Y288767D01*
X295874Y288811D01*
X295882Y288858D01*
X295885Y288909D01*
X295893Y288968D01*
X295896Y289026D01*
X295900Y289091D01*
Y289157D01*
X295896Y289153D01*
X295882Y289131D01*
X295856Y289102D01*
X295823Y289066D01*
X295787Y289022D01*
X295740Y288982D01*
X295689Y288942D01*
X295630Y288906D01*
X295627D01*
X295623Y288902D01*
X295601Y288891D01*
X295568Y288880D01*
X295525Y288862D01*
X295474Y288847D01*
X295416Y288837D01*
X295354Y288826D01*
X295288Y288822D01*
X295259D01*
X295237Y288826D01*
X295208Y288829D01*
X295179Y288833D01*
X295143Y288840D01*
X295106Y288851D01*
X295023Y288877D01*
X294979Y288895D01*
X294935Y288920D01*
X294892Y288946D01*
X294844Y288975D01*
X294800Y289011D01*
X294760Y289051D01*
X294757Y289055D01*
X294749Y289062D01*
X294739Y289073D01*
X294728Y289091D01*
X294709Y289117D01*
X294691Y289142D01*
X294673Y289175D01*
X294651Y289212D01*
X294629Y289251D01*
X294611Y289295D01*
X294593Y289346D01*
X294575Y289397D01*
X294564Y289452D01*
X294553Y289514D01*
X294546Y289576D01*
X294542Y289641D01*
Y289645D01*
Y289652D01*
Y289663D01*
Y289681D01*
X294546Y289703D01*
Y289725D01*
X294557Y289783D01*
X294567Y289852D01*
X294586Y289925D01*
X294611Y290005D01*
X294648Y290081D01*
Y290085D01*
X294651Y290089D01*
X294658Y290100D01*
X294666Y290114D01*
X294688Y290151D01*
X294720Y290198D01*
X294760Y290249D01*
X294808Y290300D01*
X294866Y290351D01*
X294928Y290394D01*
X294932D01*
X294935Y290398D01*
X294946Y290405D01*
X294961Y290409D01*
X294997Y290427D01*
X295044Y290445D01*
X295106Y290467D01*
X295175Y290482D01*
X295252Y290496D01*
X295336Y290500D01*
X295354D01*
X295372Y290496D01*
D02*
G37*
G36*
X298887Y310344D02*
Y310341D01*
Y310330D01*
Y310315D01*
Y310294D01*
X298883Y310264D01*
Y310235D01*
X298876Y310166D01*
X298869Y310086D01*
X298854Y310002D01*
X298832Y309926D01*
X298807Y309853D01*
Y309849D01*
X298803Y309846D01*
X298792Y309824D01*
X298774Y309795D01*
X298748Y309755D01*
X298712Y309715D01*
X298672Y309671D01*
X298621Y309627D01*
X298563Y309591D01*
X298555Y309587D01*
X298534Y309576D01*
X298501Y309562D01*
X298454Y309547D01*
X298395Y309529D01*
X298330Y309514D01*
X298257Y309504D01*
X298177Y309500D01*
X298144D01*
X298122Y309504D01*
X298093Y309507D01*
X298064Y309511D01*
X297988Y309525D01*
X297908Y309547D01*
X297824Y309580D01*
X297780Y309602D01*
X297740Y309627D01*
X297704Y309657D01*
X297667Y309689D01*
X297664Y309693D01*
X297660Y309697D01*
X297653Y309711D01*
X297642Y309726D01*
X297627Y309744D01*
X297613Y309769D01*
X297598Y309798D01*
X297580Y309831D01*
X297566Y309868D01*
X297551Y309911D01*
X297536Y309955D01*
X297522Y310006D01*
X297515Y310061D01*
X297504Y310122D01*
X297500Y310184D01*
Y310253D01*
X297802Y310297D01*
Y310294D01*
Y310286D01*
Y310272D01*
X297806Y310250D01*
X297809Y310228D01*
Y310203D01*
X297820Y310141D01*
X297831Y310075D01*
X297853Y310010D01*
X297875Y309951D01*
X297889Y309926D01*
X297908Y309904D01*
X297911Y309900D01*
X297926Y309889D01*
X297948Y309871D01*
X297977Y309853D01*
X298017Y309831D01*
X298060Y309817D01*
X298115Y309802D01*
X298173Y309798D01*
X298195D01*
X298217Y309802D01*
X298250Y309806D01*
X298283Y309813D01*
X298319Y309820D01*
X298355Y309835D01*
X298392Y309853D01*
X298395Y309857D01*
X298406Y309864D01*
X298421Y309878D01*
X298443Y309893D01*
X298461Y309919D01*
X298483Y309944D01*
X298501Y309973D01*
X298516Y310010D01*
Y310013D01*
X298523Y310028D01*
X298526Y310053D01*
X298534Y310086D01*
X298541Y310130D01*
X298545Y310184D01*
X298552Y310250D01*
Y310326D01*
Y312063D01*
X298887D01*
Y310344D01*
D02*
G37*
G36*
X300856Y311735D02*
X299848D01*
X299713Y311054D01*
X299717Y311058D01*
X299724Y311062D01*
X299735Y311069D01*
X299753Y311080D01*
X299775Y311091D01*
X299800Y311105D01*
X299859Y311134D01*
X299932Y311163D01*
X300011Y311189D01*
X300099Y311207D01*
X300143Y311214D01*
X300223D01*
X300244Y311211D01*
X300274Y311207D01*
X300306Y311204D01*
X300343Y311196D01*
X300383Y311185D01*
X300470Y311160D01*
X300518Y311142D01*
X300565Y311116D01*
X300612Y311091D01*
X300659Y311062D01*
X300703Y311025D01*
X300747Y310985D01*
X300750Y310981D01*
X300758Y310974D01*
X300769Y310963D01*
X300783Y310945D01*
X300801Y310919D01*
X300820Y310894D01*
X300841Y310861D01*
X300863Y310825D01*
X300882Y310785D01*
X300903Y310741D01*
X300922Y310690D01*
X300940Y310639D01*
X300954Y310585D01*
X300965Y310523D01*
X300973Y310461D01*
X300976Y310395D01*
Y310392D01*
Y310381D01*
Y310363D01*
X300973Y310337D01*
X300969Y310308D01*
X300965Y310275D01*
X300958Y310235D01*
X300951Y310195D01*
X300929Y310101D01*
X300892Y310002D01*
X300871Y309951D01*
X300841Y309904D01*
X300812Y309853D01*
X300776Y309806D01*
X300772Y309802D01*
X300765Y309791D01*
X300750Y309777D01*
X300732Y309758D01*
X300707Y309736D01*
X300678Y309707D01*
X300641Y309682D01*
X300601Y309653D01*
X300557Y309624D01*
X300507Y309598D01*
X300452Y309573D01*
X300394Y309547D01*
X300332Y309529D01*
X300263Y309514D01*
X300190Y309504D01*
X300114Y309500D01*
X300081D01*
X300055Y309504D01*
X300026Y309507D01*
X299993Y309511D01*
X299953Y309514D01*
X299913Y309525D01*
X299822Y309547D01*
X299731Y309580D01*
X299684Y309602D01*
X299637Y309627D01*
X299593Y309657D01*
X299549Y309689D01*
X299546Y309693D01*
X299538Y309697D01*
X299531Y309711D01*
X299517Y309726D01*
X299498Y309744D01*
X299480Y309766D01*
X299458Y309795D01*
X299440Y309828D01*
X299418Y309860D01*
X299396Y309900D01*
X299356Y309988D01*
X299324Y310090D01*
X299313Y310144D01*
X299305Y310203D01*
X299629Y310228D01*
Y310224D01*
Y310217D01*
X299633Y310206D01*
X299637Y310188D01*
X299648Y310148D01*
X299662Y310093D01*
X299684Y310039D01*
X299713Y309977D01*
X299749Y309922D01*
X299793Y309871D01*
X299800Y309868D01*
X299815Y309853D01*
X299844Y309835D01*
X299884Y309813D01*
X299928Y309791D01*
X299982Y309773D01*
X300044Y309758D01*
X300114Y309755D01*
X300135D01*
X300150Y309758D01*
X300194Y309762D01*
X300244Y309777D01*
X300306Y309795D01*
X300368Y309824D01*
X300434Y309868D01*
X300463Y309893D01*
X300492Y309922D01*
X300496Y309926D01*
X300499Y309929D01*
X300507Y309940D01*
X300518Y309951D01*
X300543Y309991D01*
X300572Y310042D01*
X300598Y310104D01*
X300623Y310181D01*
X300641Y310272D01*
X300648Y310319D01*
Y310370D01*
Y310373D01*
Y310381D01*
Y310395D01*
X300645Y310414D01*
Y310435D01*
X300641Y310461D01*
X300630Y310519D01*
X300612Y310588D01*
X300587Y310658D01*
X300550Y310723D01*
X300499Y310785D01*
Y310788D01*
X300492Y310792D01*
X300474Y310810D01*
X300441Y310836D01*
X300397Y310865D01*
X300339Y310890D01*
X300274Y310916D01*
X300197Y310934D01*
X300153Y310941D01*
X300084D01*
X300055Y310938D01*
X300019Y310934D01*
X299975Y310923D01*
X299932Y310912D01*
X299884Y310894D01*
X299837Y310872D01*
X299833Y310869D01*
X299819Y310861D01*
X299797Y310843D01*
X299768Y310825D01*
X299739Y310799D01*
X299709Y310767D01*
X299677Y310734D01*
X299651Y310694D01*
X299360Y310734D01*
X299604Y312030D01*
X300856D01*
Y311735D01*
D02*
G37*
G36*
X257948Y307996D02*
X257978Y307993D01*
X258010Y307989D01*
X258047Y307982D01*
X258087Y307975D01*
X258174Y307953D01*
X258265Y307916D01*
X258312Y307894D01*
X258356Y307869D01*
X258400Y307836D01*
X258443Y307804D01*
X258447Y307800D01*
X258454Y307792D01*
X258465Y307782D01*
X258476Y307767D01*
X258494Y307749D01*
X258513Y307723D01*
X258534Y307698D01*
X258556Y307665D01*
X258578Y307629D01*
X258600Y307592D01*
X258640Y307505D01*
X258673Y307403D01*
X258684Y307348D01*
X258691Y307290D01*
X258382Y307250D01*
Y307254D01*
X258378Y307261D01*
X258374Y307276D01*
X258371Y307294D01*
X258367Y307316D01*
X258360Y307341D01*
X258342Y307396D01*
X258316Y307461D01*
X258283Y307523D01*
X258247Y307581D01*
X258203Y307632D01*
X258196Y307636D01*
X258181Y307651D01*
X258152Y307669D01*
X258116Y307687D01*
X258072Y307709D01*
X258017Y307727D01*
X257956Y307742D01*
X257890Y307745D01*
X257868D01*
X257854Y307742D01*
X257814Y307738D01*
X257763Y307727D01*
X257704Y307709D01*
X257643Y307683D01*
X257581Y307647D01*
X257523Y307596D01*
X257515Y307589D01*
X257497Y307567D01*
X257475Y307534D01*
X257446Y307490D01*
X257417Y307436D01*
X257395Y307374D01*
X257377Y307301D01*
X257370Y307221D01*
Y307217D01*
Y307210D01*
Y307199D01*
X257373Y307185D01*
X257377Y307145D01*
X257388Y307097D01*
X257402Y307039D01*
X257428Y306981D01*
X257464Y306923D01*
X257512Y306868D01*
X257519Y306861D01*
X257537Y306846D01*
X257566Y306824D01*
X257606Y306799D01*
X257657Y306773D01*
X257719Y306751D01*
X257788Y306737D01*
X257865Y306730D01*
X257897D01*
X257923Y306733D01*
X257956Y306737D01*
X257992Y306744D01*
X258036Y306751D01*
X258083Y306762D01*
X258047Y306489D01*
X258029D01*
X258014Y306493D01*
X257967D01*
X257927Y306486D01*
X257879Y306479D01*
X257825Y306468D01*
X257763Y306449D01*
X257704Y306424D01*
X257643Y306391D01*
X257639D01*
X257635Y306387D01*
X257617Y306373D01*
X257592Y306347D01*
X257563Y306315D01*
X257533Y306267D01*
X257508Y306213D01*
X257490Y306151D01*
X257483Y306115D01*
Y306075D01*
Y306071D01*
Y306067D01*
Y306045D01*
X257490Y306016D01*
X257497Y305976D01*
X257512Y305932D01*
X257530Y305885D01*
X257559Y305838D01*
X257599Y305794D01*
X257603Y305790D01*
X257621Y305776D01*
X257646Y305758D01*
X257679Y305736D01*
X257723Y305718D01*
X257774Y305699D01*
X257832Y305685D01*
X257897Y305681D01*
X257927D01*
X257959Y305689D01*
X258003Y305696D01*
X258050Y305711D01*
X258098Y305729D01*
X258149Y305758D01*
X258196Y305794D01*
X258200Y305798D01*
X258214Y305816D01*
X258236Y305841D01*
X258261Y305878D01*
X258287Y305925D01*
X258312Y305983D01*
X258334Y306053D01*
X258349Y306133D01*
X258658Y306078D01*
Y306075D01*
X258655Y306064D01*
X258651Y306049D01*
X258647Y306027D01*
X258640Y306002D01*
X258629Y305973D01*
X258607Y305903D01*
X258571Y305823D01*
X258527Y305743D01*
X258473Y305667D01*
X258403Y305598D01*
X258400Y305594D01*
X258393Y305590D01*
X258382Y305583D01*
X258367Y305572D01*
X258349Y305558D01*
X258323Y305543D01*
X258298Y305528D01*
X258265Y305510D01*
X258192Y305481D01*
X258109Y305452D01*
X258010Y305434D01*
X257959Y305427D01*
X257868D01*
X257828Y305430D01*
X257781Y305437D01*
X257723Y305448D01*
X257657Y305467D01*
X257592Y305488D01*
X257526Y305518D01*
X257523D01*
X257519Y305521D01*
X257497Y305532D01*
X257464Y305554D01*
X257428Y305579D01*
X257384Y305616D01*
X257341Y305656D01*
X257297Y305703D01*
X257260Y305758D01*
X257257Y305765D01*
X257246Y305783D01*
X257231Y305816D01*
X257213Y305856D01*
X257195Y305903D01*
X257180Y305958D01*
X257169Y306020D01*
X257166Y306082D01*
Y306089D01*
Y306111D01*
X257169Y306140D01*
X257177Y306180D01*
X257188Y306227D01*
X257206Y306278D01*
X257228Y306329D01*
X257257Y306380D01*
X257260Y306387D01*
X257271Y306402D01*
X257293Y306428D01*
X257322Y306457D01*
X257359Y306489D01*
X257402Y306526D01*
X257453Y306559D01*
X257515Y306591D01*
X257512D01*
X257504Y306595D01*
X257493Y306599D01*
X257479Y306602D01*
X257439Y306617D01*
X257388Y306639D01*
X257330Y306668D01*
X257271Y306704D01*
X257217Y306751D01*
X257166Y306806D01*
X257162Y306813D01*
X257148Y306835D01*
X257126Y306872D01*
X257104Y306919D01*
X257082Y306977D01*
X257060Y307046D01*
X257046Y307126D01*
X257042Y307214D01*
Y307217D01*
Y307228D01*
Y307246D01*
X257046Y307268D01*
X257049Y307297D01*
X257057Y307330D01*
X257064Y307367D01*
X257071Y307407D01*
X257100Y307494D01*
X257122Y307541D01*
X257144Y307585D01*
X257173Y307632D01*
X257206Y307680D01*
X257242Y307727D01*
X257286Y307771D01*
X257290Y307774D01*
X257297Y307782D01*
X257311Y307792D01*
X257330Y307807D01*
X257351Y307825D01*
X257381Y307843D01*
X257413Y307865D01*
X257453Y307884D01*
X257493Y307905D01*
X257541Y307927D01*
X257588Y307945D01*
X257643Y307964D01*
X257701Y307978D01*
X257763Y307989D01*
X257825Y307996D01*
X257894Y308000D01*
X257927D01*
X257948Y307996D01*
D02*
G37*
G36*
X259878D02*
X259907Y307993D01*
X259936Y307989D01*
X260012Y307975D01*
X260092Y307953D01*
X260176Y307920D01*
X260220Y307898D01*
X260260Y307873D01*
X260296Y307843D01*
X260333Y307811D01*
X260336Y307807D01*
X260340Y307804D01*
X260347Y307789D01*
X260358Y307774D01*
X260373Y307756D01*
X260387Y307731D01*
X260402Y307701D01*
X260420Y307669D01*
X260435Y307632D01*
X260449Y307589D01*
X260464Y307545D01*
X260478Y307494D01*
X260486Y307439D01*
X260496Y307378D01*
X260500Y307316D01*
Y307246D01*
X260198Y307203D01*
Y307207D01*
Y307214D01*
Y307228D01*
X260194Y307250D01*
X260191Y307272D01*
Y307297D01*
X260180Y307359D01*
X260169Y307425D01*
X260147Y307490D01*
X260125Y307549D01*
X260111Y307574D01*
X260092Y307596D01*
X260089Y307600D01*
X260074Y307611D01*
X260052Y307629D01*
X260023Y307647D01*
X259983Y307669D01*
X259940Y307683D01*
X259885Y307698D01*
X259827Y307701D01*
X259805D01*
X259783Y307698D01*
X259750Y307694D01*
X259717Y307687D01*
X259681Y307680D01*
X259645Y307665D01*
X259608Y307647D01*
X259605Y307643D01*
X259594Y307636D01*
X259579Y307622D01*
X259557Y307607D01*
X259539Y307581D01*
X259517Y307556D01*
X259499Y307527D01*
X259485Y307490D01*
Y307487D01*
X259477Y307472D01*
X259473Y307447D01*
X259466Y307414D01*
X259459Y307370D01*
X259455Y307316D01*
X259448Y307250D01*
Y307174D01*
Y305437D01*
X259113D01*
Y307155D01*
Y307159D01*
Y307170D01*
Y307185D01*
Y307207D01*
X259117Y307236D01*
Y307265D01*
X259124Y307334D01*
X259131Y307414D01*
X259146Y307498D01*
X259168Y307574D01*
X259193Y307647D01*
Y307651D01*
X259197Y307654D01*
X259208Y307676D01*
X259226Y307705D01*
X259251Y307745D01*
X259288Y307785D01*
X259328Y307829D01*
X259379Y307873D01*
X259437Y307909D01*
X259444Y307913D01*
X259466Y307924D01*
X259499Y307938D01*
X259546Y307953D01*
X259605Y307971D01*
X259670Y307985D01*
X259743Y307996D01*
X259823Y308000D01*
X259856D01*
X259878Y307996D01*
D02*
G37*
G36*
X201387Y429844D02*
Y429841D01*
Y429830D01*
Y429815D01*
Y429794D01*
X201383Y429764D01*
Y429735D01*
X201376Y429666D01*
X201369Y429586D01*
X201354Y429502D01*
X201332Y429426D01*
X201307Y429353D01*
Y429349D01*
X201303Y429346D01*
X201292Y429324D01*
X201274Y429295D01*
X201249Y429255D01*
X201212Y429215D01*
X201172Y429171D01*
X201121Y429127D01*
X201063Y429091D01*
X201056Y429087D01*
X201034Y429076D01*
X201001Y429062D01*
X200954Y429047D01*
X200895Y429029D01*
X200830Y429014D01*
X200757Y429004D01*
X200677Y429000D01*
X200644D01*
X200622Y429004D01*
X200593Y429007D01*
X200564Y429011D01*
X200488Y429025D01*
X200408Y429047D01*
X200324Y429080D01*
X200280Y429102D01*
X200240Y429127D01*
X200204Y429156D01*
X200167Y429189D01*
X200164Y429193D01*
X200160Y429197D01*
X200153Y429211D01*
X200142Y429226D01*
X200127Y429244D01*
X200113Y429269D01*
X200098Y429298D01*
X200080Y429331D01*
X200065Y429368D01*
X200051Y429411D01*
X200036Y429455D01*
X200022Y429506D01*
X200014Y429561D01*
X200004Y429622D01*
X200000Y429684D01*
Y429753D01*
X200302Y429797D01*
Y429794D01*
Y429786D01*
Y429772D01*
X200306Y429750D01*
X200309Y429728D01*
Y429703D01*
X200320Y429641D01*
X200331Y429575D01*
X200353Y429510D01*
X200375Y429451D01*
X200389Y429426D01*
X200408Y429404D01*
X200411Y429400D01*
X200426Y429389D01*
X200448Y429371D01*
X200477Y429353D01*
X200517Y429331D01*
X200560Y429317D01*
X200615Y429302D01*
X200673Y429298D01*
X200695D01*
X200717Y429302D01*
X200750Y429306D01*
X200782Y429313D01*
X200819Y429320D01*
X200855Y429335D01*
X200892Y429353D01*
X200895Y429357D01*
X200906Y429364D01*
X200921Y429379D01*
X200943Y429393D01*
X200961Y429419D01*
X200983Y429444D01*
X201001Y429473D01*
X201015Y429510D01*
Y429513D01*
X201023Y429528D01*
X201026Y429553D01*
X201034Y429586D01*
X201041Y429630D01*
X201045Y429684D01*
X201052Y429750D01*
Y429826D01*
Y431563D01*
X201387D01*
Y429844D01*
D02*
G37*
G36*
X203105Y429932D02*
X203447D01*
Y429648D01*
X203105D01*
Y429044D01*
X202796D01*
Y429648D01*
X201700D01*
Y429932D01*
X202854Y431563D01*
X203105D01*
Y429932D01*
D02*
G37*
G36*
X184456Y409661D02*
X182487D01*
X182491Y409657D01*
X182505Y409639D01*
X182527Y409617D01*
X182553Y409581D01*
X182585Y409541D01*
X182622Y409490D01*
X182662Y409432D01*
X182702Y409366D01*
Y409362D01*
X182705Y409359D01*
X182720Y409337D01*
X182738Y409300D01*
X182760Y409257D01*
X182786Y409206D01*
X182811Y409151D01*
X182837Y409097D01*
X182858Y409042D01*
X182560D01*
Y409046D01*
X182553Y409053D01*
X182549Y409067D01*
X182538Y409086D01*
X182527Y409107D01*
X182513Y409133D01*
X182476Y409195D01*
X182436Y409268D01*
X182385Y409340D01*
X182327Y409417D01*
X182265Y409493D01*
X182261Y409497D01*
X182258Y409501D01*
X182247Y409512D01*
X182236Y409526D01*
X182200Y409559D01*
X182156Y409602D01*
X182105Y409646D01*
X182047Y409693D01*
X181988Y409734D01*
X181927Y409770D01*
Y409970D01*
X184456D01*
Y409661D01*
D02*
G37*
G36*
X183736Y408383D02*
X183765D01*
X183834Y408376D01*
X183914Y408369D01*
X183998Y408354D01*
X184074Y408332D01*
X184147Y408307D01*
X184151D01*
X184154Y408303D01*
X184176Y408292D01*
X184205Y408274D01*
X184245Y408249D01*
X184285Y408212D01*
X184329Y408172D01*
X184373Y408121D01*
X184409Y408063D01*
X184413Y408055D01*
X184424Y408034D01*
X184438Y408001D01*
X184453Y407954D01*
X184471Y407895D01*
X184485Y407830D01*
X184496Y407757D01*
X184500Y407677D01*
Y407644D01*
X184496Y407622D01*
X184493Y407593D01*
X184489Y407564D01*
X184475Y407488D01*
X184453Y407408D01*
X184420Y407324D01*
X184398Y407280D01*
X184373Y407240D01*
X184344Y407204D01*
X184311Y407167D01*
X184307Y407164D01*
X184303Y407160D01*
X184289Y407153D01*
X184274Y407142D01*
X184256Y407127D01*
X184231Y407113D01*
X184202Y407098D01*
X184169Y407080D01*
X184132Y407065D01*
X184089Y407051D01*
X184045Y407036D01*
X183994Y407022D01*
X183940Y407015D01*
X183878Y407004D01*
X183816Y407000D01*
X183747D01*
X183703Y407302D01*
X183706D01*
X183714D01*
X183728D01*
X183750Y407306D01*
X183772Y407309D01*
X183798D01*
X183859Y407320D01*
X183925Y407331D01*
X183990Y407353D01*
X184049Y407375D01*
X184074Y407389D01*
X184096Y407408D01*
X184100Y407411D01*
X184110Y407426D01*
X184129Y407448D01*
X184147Y407477D01*
X184169Y407517D01*
X184183Y407560D01*
X184198Y407615D01*
X184202Y407673D01*
Y407695D01*
X184198Y407717D01*
X184194Y407750D01*
X184187Y407783D01*
X184180Y407819D01*
X184165Y407855D01*
X184147Y407892D01*
X184143Y407895D01*
X184136Y407906D01*
X184122Y407921D01*
X184107Y407943D01*
X184081Y407961D01*
X184056Y407983D01*
X184027Y408001D01*
X183990Y408015D01*
X183987D01*
X183972Y408023D01*
X183947Y408026D01*
X183914Y408034D01*
X183870Y408041D01*
X183816Y408045D01*
X183750Y408052D01*
X183674D01*
X181938D01*
Y408387D01*
X183656D01*
X183659D01*
X183670D01*
X183685D01*
X183706D01*
X183736Y408383D01*
D02*
G37*
G36*
X386804Y393085D02*
X384834D01*
X384838Y393082D01*
X384852Y393063D01*
X384874Y393042D01*
X384900Y393005D01*
X384932Y392965D01*
X384969Y392914D01*
X385009Y392856D01*
X385049Y392791D01*
Y392787D01*
X385053Y392783D01*
X385067Y392761D01*
X385085Y392725D01*
X385107Y392681D01*
X385133Y392630D01*
X385158Y392576D01*
X385184Y392521D01*
X385206Y392467D01*
X384907D01*
Y392470D01*
X384900Y392477D01*
X384896Y392492D01*
X384885Y392510D01*
X384874Y392532D01*
X384860Y392558D01*
X384823Y392619D01*
X384783Y392692D01*
X384732Y392765D01*
X384674Y392842D01*
X384612Y392918D01*
X384609Y392921D01*
X384605Y392925D01*
X384594Y392936D01*
X384583Y392951D01*
X384547Y392983D01*
X384503Y393027D01*
X384452Y393071D01*
X384394Y393118D01*
X384336Y393158D01*
X384274Y393195D01*
Y393395D01*
X386804D01*
Y393085D01*
D02*
G37*
G36*
X387000Y391859D02*
Y391855D01*
X386996Y391848D01*
X386989Y391833D01*
X386982Y391811D01*
X386971Y391786D01*
X386956Y391757D01*
X386942Y391724D01*
X386924Y391688D01*
X386880Y391607D01*
X386829Y391516D01*
X386763Y391418D01*
X386691Y391316D01*
Y391313D01*
X386698Y391305D01*
X386705Y391287D01*
X386716Y391269D01*
X386727Y391240D01*
X386742Y391211D01*
X386753Y391174D01*
X386767Y391134D01*
X386782Y391091D01*
X386796Y391043D01*
X386822Y390938D01*
X386840Y390821D01*
X386843Y390759D01*
X386847Y390698D01*
Y390665D01*
X386843Y390639D01*
Y390610D01*
X386840Y390574D01*
X386833Y390534D01*
X386825Y390490D01*
X386807Y390395D01*
X386778Y390290D01*
X386738Y390181D01*
X386713Y390130D01*
X386683Y390075D01*
X386680Y390071D01*
X386676Y390064D01*
X386665Y390050D01*
X386654Y390031D01*
X386636Y390006D01*
X386614Y389980D01*
X386563Y389919D01*
X386498Y389849D01*
X386418Y389780D01*
X386327Y389711D01*
X386221Y389649D01*
X386217D01*
X386207Y389642D01*
X386192Y389635D01*
X386170Y389627D01*
X386141Y389616D01*
X386108Y389602D01*
X386068Y389587D01*
X386024Y389576D01*
X385977Y389562D01*
X385926Y389547D01*
X385872Y389536D01*
X385810Y389522D01*
X385682Y389507D01*
X385548Y389500D01*
X385544D01*
X385529D01*
X385511D01*
X385486Y389504D01*
X385453D01*
X385413Y389507D01*
X385369Y389511D01*
X385322Y389518D01*
X385216Y389536D01*
X385104Y389562D01*
X384983Y389598D01*
X384867Y389649D01*
X384863Y389653D01*
X384852Y389656D01*
X384838Y389664D01*
X384816Y389678D01*
X384790Y389693D01*
X384761Y389711D01*
X384692Y389762D01*
X384619Y389820D01*
X384543Y389897D01*
X384467Y389980D01*
X384401Y390079D01*
X384397Y390082D01*
X384394Y390093D01*
X384386Y390108D01*
X384376Y390130D01*
X384365Y390155D01*
X384350Y390184D01*
X384336Y390221D01*
X384321Y390261D01*
X384306Y390308D01*
X384292Y390355D01*
X384266Y390461D01*
X384248Y390577D01*
X384241Y390639D01*
Y390738D01*
X384244Y390763D01*
Y390796D01*
X384248Y390828D01*
X384256Y390872D01*
X384263Y390916D01*
X384281Y391011D01*
X384310Y391120D01*
X384354Y391225D01*
X384379Y391280D01*
X384408Y391335D01*
X384412Y391338D01*
X384416Y391345D01*
X384426Y391360D01*
X384437Y391382D01*
X384456Y391404D01*
X384477Y391433D01*
X384528Y391495D01*
X384594Y391560D01*
X384674Y391633D01*
X384769Y391702D01*
X384874Y391760D01*
X384878D01*
X384889Y391768D01*
X384903Y391775D01*
X384925Y391782D01*
X384954Y391797D01*
X384987Y391808D01*
X385027Y391822D01*
X385071Y391837D01*
X385118Y391848D01*
X385169Y391862D01*
X385224Y391877D01*
X385282Y391888D01*
X385409Y391902D01*
X385544Y391910D01*
X385548D01*
X385559D01*
X385573D01*
X385595D01*
X385624Y391906D01*
X385657D01*
X385693Y391902D01*
X385730Y391899D01*
X385817Y391888D01*
X385912Y391870D01*
X386010Y391848D01*
X386105Y391815D01*
X386108D01*
X386116Y391811D01*
X386130Y391804D01*
X386145Y391797D01*
X386167Y391786D01*
X386192Y391775D01*
X386250Y391746D01*
X386319Y391706D01*
X386392Y391655D01*
X386465Y391597D01*
X386538Y391531D01*
Y391535D01*
X386545Y391542D01*
X386552Y391553D01*
X386563Y391571D01*
X386578Y391589D01*
X386592Y391615D01*
X386625Y391669D01*
X386665Y391735D01*
X386705Y391808D01*
X386738Y391884D01*
X386771Y391957D01*
X387000Y391859D01*
D02*
G37*
G36*
X362878Y442996D02*
X362907Y442993D01*
X362936Y442989D01*
X363012Y442975D01*
X363092Y442953D01*
X363176Y442920D01*
X363220Y442898D01*
X363260Y442873D01*
X363296Y442843D01*
X363333Y442811D01*
X363336Y442807D01*
X363340Y442803D01*
X363347Y442789D01*
X363358Y442774D01*
X363373Y442756D01*
X363387Y442731D01*
X363402Y442702D01*
X363420Y442669D01*
X363435Y442632D01*
X363449Y442589D01*
X363464Y442545D01*
X363478Y442494D01*
X363486Y442440D01*
X363496Y442378D01*
X363500Y442316D01*
Y442247D01*
X363198Y442203D01*
Y442206D01*
Y442214D01*
Y442228D01*
X363194Y442250D01*
X363191Y442272D01*
Y442298D01*
X363180Y442359D01*
X363169Y442425D01*
X363147Y442490D01*
X363125Y442549D01*
X363111Y442574D01*
X363092Y442596D01*
X363089Y442600D01*
X363074Y442611D01*
X363052Y442629D01*
X363023Y442647D01*
X362983Y442669D01*
X362940Y442683D01*
X362885Y442698D01*
X362827Y442702D01*
X362805D01*
X362783Y442698D01*
X362750Y442694D01*
X362717Y442687D01*
X362681Y442680D01*
X362645Y442665D01*
X362608Y442647D01*
X362605Y442643D01*
X362594Y442636D01*
X362579Y442622D01*
X362557Y442607D01*
X362539Y442581D01*
X362517Y442556D01*
X362499Y442527D01*
X362485Y442490D01*
Y442487D01*
X362477Y442472D01*
X362474Y442447D01*
X362466Y442414D01*
X362459Y442370D01*
X362455Y442316D01*
X362448Y442250D01*
Y442174D01*
Y440438D01*
X362113D01*
Y442156D01*
Y442159D01*
Y442170D01*
Y442185D01*
Y442206D01*
X362117Y442236D01*
Y442265D01*
X362124Y442334D01*
X362131Y442414D01*
X362146Y442498D01*
X362168Y442574D01*
X362193Y442647D01*
Y442651D01*
X362197Y442654D01*
X362208Y442676D01*
X362226Y442705D01*
X362251Y442745D01*
X362288Y442785D01*
X362328Y442829D01*
X362379Y442873D01*
X362437Y442909D01*
X362444Y442913D01*
X362466Y442924D01*
X362499Y442938D01*
X362546Y442953D01*
X362605Y442971D01*
X362670Y442985D01*
X362743Y442996D01*
X362823Y443000D01*
X362856D01*
X362878Y442996D01*
D02*
G37*
G36*
X361738Y442953D02*
Y442938D01*
Y442916D01*
X361735Y442887D01*
X361731Y442854D01*
X361724Y442818D01*
X361716Y442782D01*
X361702Y442742D01*
Y442738D01*
X361698Y442734D01*
X361691Y442712D01*
X361676Y442680D01*
X361655Y442636D01*
X361625Y442585D01*
X361589Y442527D01*
X361549Y442469D01*
X361498Y442407D01*
Y442403D01*
X361491Y442399D01*
X361473Y442378D01*
X361440Y442345D01*
X361392Y442298D01*
X361338Y442243D01*
X361269Y442177D01*
X361185Y442105D01*
X361094Y442028D01*
X361090Y442025D01*
X361076Y442014D01*
X361054Y441995D01*
X361029Y441973D01*
X360996Y441944D01*
X360956Y441912D01*
X360916Y441875D01*
X360868Y441835D01*
X360777Y441748D01*
X360686Y441660D01*
X360643Y441617D01*
X360603Y441573D01*
X360566Y441533D01*
X360537Y441493D01*
Y441489D01*
X360530Y441486D01*
X360523Y441475D01*
X360515Y441460D01*
X360490Y441420D01*
X360461Y441373D01*
X360435Y441315D01*
X360410Y441253D01*
X360395Y441184D01*
X360388Y441118D01*
Y441115D01*
Y441111D01*
X360391Y441089D01*
X360395Y441053D01*
X360406Y441013D01*
X360421Y440962D01*
X360446Y440911D01*
X360479Y440860D01*
X360523Y440809D01*
X360530Y440801D01*
X360548Y440787D01*
X360574Y440769D01*
X360613Y440743D01*
X360665Y440721D01*
X360723Y440699D01*
X360792Y440685D01*
X360868Y440681D01*
X360890D01*
X360905Y440685D01*
X360948Y440689D01*
X360999Y440699D01*
X361054Y440714D01*
X361116Y440740D01*
X361174Y440772D01*
X361229Y440816D01*
X361236Y440823D01*
X361250Y440841D01*
X361272Y440871D01*
X361294Y440914D01*
X361320Y440965D01*
X361342Y441031D01*
X361356Y441104D01*
X361363Y441187D01*
X361680Y441155D01*
Y441151D01*
X361676Y441140D01*
Y441122D01*
X361673Y441096D01*
X361666Y441067D01*
X361658Y441034D01*
X361647Y440994D01*
X361636Y440954D01*
X361607Y440867D01*
X361563Y440780D01*
X361538Y440736D01*
X361505Y440692D01*
X361473Y440652D01*
X361436Y440616D01*
X361433Y440612D01*
X361425Y440609D01*
X361414Y440598D01*
X361396Y440587D01*
X361374Y440572D01*
X361349Y440558D01*
X361320Y440539D01*
X361283Y440521D01*
X361243Y440503D01*
X361199Y440485D01*
X361152Y440470D01*
X361101Y440456D01*
X361047Y440445D01*
X360988Y440434D01*
X360927Y440430D01*
X360861Y440427D01*
X360825D01*
X360799Y440430D01*
X360770Y440434D01*
X360734Y440438D01*
X360694Y440445D01*
X360653Y440452D01*
X360559Y440478D01*
X360464Y440514D01*
X360417Y440536D01*
X360370Y440561D01*
X360326Y440594D01*
X360286Y440630D01*
X360282Y440634D01*
X360275Y440638D01*
X360268Y440652D01*
X360253Y440667D01*
X360235Y440685D01*
X360217Y440710D01*
X360198Y440736D01*
X360177Y440769D01*
X360140Y440838D01*
X360104Y440925D01*
X360089Y440969D01*
X360082Y441020D01*
X360075Y441071D01*
X360071Y441125D01*
Y441133D01*
Y441151D01*
X360075Y441180D01*
X360078Y441220D01*
X360086Y441264D01*
X360100Y441315D01*
X360115Y441369D01*
X360137Y441424D01*
X360140Y441431D01*
X360148Y441449D01*
X360162Y441478D01*
X360184Y441518D01*
X360213Y441562D01*
X360249Y441617D01*
X360293Y441671D01*
X360344Y441733D01*
X360351Y441741D01*
X360370Y441762D01*
X360388Y441781D01*
X360406Y441799D01*
X360428Y441821D01*
X360457Y441850D01*
X360486Y441879D01*
X360523Y441912D01*
X360559Y441948D01*
X360603Y441988D01*
X360650Y442028D01*
X360701Y442075D01*
X360759Y442123D01*
X360817Y442174D01*
X360821Y442177D01*
X360828Y442185D01*
X360843Y442196D01*
X360861Y442210D01*
X360883Y442232D01*
X360908Y442254D01*
X360967Y442301D01*
X361029Y442356D01*
X361087Y442410D01*
X361138Y442458D01*
X361159Y442476D01*
X361178Y442494D01*
X361181Y442498D01*
X361192Y442509D01*
X361207Y442523D01*
X361225Y442545D01*
X361243Y442570D01*
X361265Y442596D01*
X361309Y442658D01*
X360068D01*
Y442956D01*
X361738D01*
Y442953D01*
D02*
G37*
%LPC*%
G36*
X295339Y290245D02*
X295321D01*
X295306Y290242D01*
X295270Y290238D01*
X295223Y290227D01*
X295172Y290205D01*
X295113Y290180D01*
X295055Y290140D01*
X295026Y290118D01*
X295001Y290089D01*
Y290085D01*
X294993Y290081D01*
X294979Y290060D01*
X294957Y290023D01*
X294928Y289976D01*
X294902Y289914D01*
X294881Y289841D01*
X294866Y289757D01*
X294859Y289659D01*
Y289655D01*
Y289648D01*
Y289634D01*
X294862Y289616D01*
Y289594D01*
X294866Y289568D01*
X294877Y289510D01*
X294892Y289444D01*
X294917Y289375D01*
X294953Y289310D01*
X295001Y289248D01*
X295008Y289241D01*
X295026Y289222D01*
X295055Y289201D01*
X295095Y289171D01*
X295146Y289142D01*
X295204Y289121D01*
X295274Y289102D01*
X295350Y289095D01*
X295372D01*
X295387Y289099D01*
X295423Y289102D01*
X295474Y289113D01*
X295529Y289131D01*
X295590Y289160D01*
X295649Y289197D01*
X295707Y289248D01*
X295714Y289255D01*
X295729Y289273D01*
X295754Y289306D01*
X295780Y289353D01*
X295805Y289408D01*
X295831Y289477D01*
X295845Y289554D01*
X295852Y289641D01*
Y289648D01*
Y289667D01*
X295849Y289699D01*
X295845Y289739D01*
X295838Y289787D01*
X295823Y289838D01*
X295809Y289892D01*
X295787Y289947D01*
X295783Y289954D01*
X295772Y289972D01*
X295758Y289998D01*
X295736Y290031D01*
X295710Y290063D01*
X295678Y290103D01*
X295641Y290136D01*
X295598Y290169D01*
X295590Y290172D01*
X295576Y290180D01*
X295550Y290194D01*
X295517Y290205D01*
X295481Y290220D01*
X295438Y290234D01*
X295390Y290242D01*
X295339Y290245D01*
D02*
G37*
G36*
X202796Y431060D02*
X202002Y429932D01*
X202796D01*
Y431060D01*
D02*
G37*
G36*
X385548Y391567D02*
X385544D01*
X385533D01*
X385519D01*
X385497D01*
X385468Y391564D01*
X385438D01*
X385402Y391560D01*
X385366Y391553D01*
X385282Y391542D01*
X385191Y391524D01*
X385100Y391498D01*
X385013Y391462D01*
X385009D01*
X385002Y391458D01*
X384991Y391451D01*
X384976Y391444D01*
X384932Y391418D01*
X384882Y391386D01*
X384823Y391342D01*
X384765Y391287D01*
X384707Y391225D01*
X384656Y391156D01*
Y391153D01*
X384649Y391149D01*
X384645Y391138D01*
X384634Y391120D01*
X384627Y391102D01*
X384616Y391080D01*
X384590Y391025D01*
X384569Y390960D01*
X384547Y390883D01*
X384532Y390796D01*
X384528Y390705D01*
Y390668D01*
X384532Y390643D01*
X384536Y390610D01*
X384543Y390574D01*
X384550Y390534D01*
X384561Y390490D01*
X384576Y390439D01*
X384590Y390392D01*
X384612Y390341D01*
X384638Y390286D01*
X384667Y390235D01*
X384703Y390184D01*
X384740Y390133D01*
X384787Y390086D01*
X384790Y390082D01*
X384798Y390075D01*
X384812Y390064D01*
X384834Y390050D01*
X384860Y390028D01*
X384893Y390009D01*
X384932Y389988D01*
X384976Y389966D01*
X385027Y389940D01*
X385085Y389919D01*
X385147Y389900D01*
X385216Y389882D01*
X385289Y389864D01*
X385369Y389853D01*
X385457Y389846D01*
X385548Y389842D01*
X385555D01*
X385570D01*
X385595D01*
X385628Y389846D01*
X385668Y389849D01*
X385715Y389857D01*
X385770Y389864D01*
X385824Y389871D01*
X385948Y389900D01*
X386010Y389919D01*
X386072Y389944D01*
X386134Y389969D01*
X386192Y390002D01*
X386250Y390039D01*
X386301Y390082D01*
X386305Y390086D01*
X386312Y390093D01*
X386327Y390108D01*
X386341Y390126D01*
X386363Y390152D01*
X386385Y390181D01*
X386407Y390213D01*
X386432Y390253D01*
X386458Y390294D01*
X386479Y390341D01*
X386501Y390392D01*
X386523Y390446D01*
X386538Y390508D01*
X386552Y390570D01*
X386560Y390636D01*
X386563Y390705D01*
Y390738D01*
X386560Y390770D01*
X386556Y390814D01*
X386549Y390869D01*
X386534Y390923D01*
X386520Y390985D01*
X386498Y391043D01*
X386494Y391036D01*
X386479Y391018D01*
X386461Y390985D01*
X386439Y390945D01*
X386418Y390894D01*
X386392Y390840D01*
X386370Y390778D01*
X386352Y390712D01*
X386112Y390796D01*
Y390799D01*
X386116Y390810D01*
X386119Y390825D01*
X386126Y390843D01*
X386134Y390869D01*
X386145Y390898D01*
X386170Y390963D01*
X386207Y391040D01*
X386246Y391120D01*
X386294Y391196D01*
X386352Y391273D01*
X386349Y391276D01*
X386341Y391287D01*
X386323Y391302D01*
X386301Y391320D01*
X386272Y391342D01*
X386239Y391367D01*
X386199Y391393D01*
X386152Y391422D01*
X386097Y391447D01*
X386035Y391473D01*
X385970Y391498D01*
X385901Y391520D01*
X385821Y391542D01*
X385737Y391557D01*
X385646Y391564D01*
X385548Y391567D01*
D02*
G37*
%LPD*%
D36*
X309142Y284850D02*
Y296150D01*
X286858D02*
X309142D01*
X286858Y284850D02*
Y296150D01*
Y284850D02*
X309142D01*
X286358Y303850D02*
Y315150D01*
Y303850D02*
X308642D01*
Y315150D01*
X286358D02*
X308642D01*
X271642Y302350D02*
Y313650D01*
X249358D02*
X271642D01*
X249358Y302350D02*
Y313650D01*
Y302350D02*
X271642D01*
X188858Y423350D02*
Y434650D01*
Y423350D02*
X211142D01*
Y434650D01*
X188858D02*
X211142D01*
X178850Y395858D02*
X190150D01*
Y418142D01*
X178850D02*
X190150D01*
X178850Y395858D02*
Y418142D01*
X375110Y377610D02*
X398890D01*
Y401390D01*
X375110D02*
X398890D01*
X375110Y377610D02*
Y401390D01*
X352358Y437350D02*
X374642D01*
X352358D02*
Y448650D01*
X374642D01*
Y437350D02*
Y448650D01*
%TF.MD5,8281e085a07bbb3b6bd9ccfbc14c2056*%
M02*
