%TF.GenerationSoftware,Altium Limited,Altium Designer,23.3.1 (30)*%
G04 Layer_Physical_Order=2*
G04 Layer_Color=16711680*
%FSLAX25Y25*%
%MOIN*%
%TF.SameCoordinates,3F8D0E0F-F656-4E3B-87BE-8AFF8012C70A*%
%TF.FilePolarity,Positive*%
%TF.FileFunction,Copper,L2,Bot,Signal*%
%TF.Part,Single*%
G01*
G75*
%TA.AperFunction,Conductor*%
%ADD10C,0.01000*%
%TA.AperFunction,ViaPad*%
%ADD11C,0.06000*%
%TA.AperFunction,ComponentPad*%
%ADD12C,0.05118*%
%ADD13C,0.06181*%
%ADD14R,0.06181X0.06181*%
%ADD15C,0.04724*%
%ADD16R,0.04724X0.04724*%
%ADD17C,0.05512*%
%ADD18R,0.04724X0.04724*%
%ADD19R,0.06181X0.06181*%
%ADD20C,0.04331*%
%ADD21R,0.04331X0.04331*%
%ADD22C,0.06299*%
%ADD23R,0.05906X0.05906*%
%ADD24C,0.05906*%
%ADD25R,0.06299X0.06299*%
D10*
X414000Y279500D02*
X418500Y284000D01*
X208500Y279500D02*
X414000D01*
X178000Y310000D02*
X208500Y279500D01*
X418500Y284000D02*
Y343914D01*
X403414Y384500D02*
X404000Y385086D01*
X387000Y384500D02*
X403414D01*
X404000Y385086D02*
Y439500D01*
X400500Y443000D02*
X404000Y439500D01*
X372000Y399500D02*
X382000Y389500D01*
X344500Y399500D02*
X372000D01*
X359000Y417500D02*
X364000D01*
X355566Y429500D02*
X357566Y427500D01*
X364000Y417500D02*
X387000Y394500D01*
X342000Y429500D02*
X355566D01*
X368500Y443000D02*
X400500D01*
X312000Y429500D02*
Y441914D01*
X313086Y443000D01*
X358500D01*
X314500Y383000D02*
Y399500D01*
X291000Y417500D02*
X359000D01*
X272500Y399000D02*
X291000Y417500D01*
X273000Y429500D02*
X312000D01*
X268000Y424500D02*
X272500Y429000D01*
X257000Y414500D02*
X272500Y399000D01*
X230500Y424500D02*
X268000D01*
X230500Y414500D02*
X257000D01*
X226000Y429000D02*
X230500Y424500D01*
X205000Y429000D02*
X226000D01*
X184500Y402000D02*
X228000D01*
X185902Y412000D02*
X188402Y414500D01*
X230500D01*
X184500Y412000D02*
Y418500D01*
X195000Y429000D01*
X176500Y404000D02*
X184500Y412000D01*
X176500Y376500D02*
Y404000D01*
Y376500D02*
X195500Y357500D01*
X203000D01*
X212000Y348500D01*
X208000Y310000D02*
X221500D01*
X244500Y333000D01*
X314500Y383000D02*
X334500Y363000D01*
X212000Y348500D02*
X290000D01*
X304500Y363000D01*
X300047Y342586D02*
X304500Y347039D01*
Y363000D01*
Y343000D02*
X324500Y363000D01*
X304500Y333000D02*
Y343000D01*
Y333000D02*
X316000Y344500D01*
X255000Y308500D02*
Y332500D01*
X264500Y309000D02*
Y333000D01*
X293000Y290500D02*
Y309000D01*
X292500Y309500D02*
Y315000D01*
X274500Y333000D02*
X292500Y315000D01*
X300047Y313355D02*
X302500Y310902D01*
X300047Y313355D02*
Y342586D01*
X305500Y324000D02*
X314500Y333000D01*
X302500Y309992D02*
X305500Y312992D01*
Y324000D01*
X324199Y318301D02*
Y332699D01*
X334500Y326589D02*
Y333000D01*
X336102Y318000D02*
Y324986D01*
X334500Y326589D02*
X336102Y324986D01*
X302500Y291000D02*
Y309500D01*
X303000Y290500D02*
X322500D01*
X325500Y293500D01*
X323898Y318000D02*
X342500Y299398D01*
Y293586D02*
X343086Y293000D01*
X342500Y293586D02*
Y299398D01*
X343086Y293000D02*
X355000D01*
X325500Y293500D02*
X335000Y284000D01*
X375914D02*
X376500Y284586D01*
Y294000D01*
X335000Y284000D02*
X375914D01*
X382500Y318000D02*
X406500Y294000D01*
X336102Y318000D02*
X382500D01*
X417914Y344500D02*
X418500Y343914D01*
X316000Y344500D02*
X417914D01*
X173000Y315000D02*
X178000Y310000D01*
X173000Y315000D02*
Y357500D01*
X163500Y367000D02*
X173000Y357500D01*
X163500Y367000D02*
Y406000D01*
Y436000D02*
X170000Y442500D01*
X204414D02*
X205000Y441914D01*
Y429000D02*
Y441914D01*
X170000Y442500D02*
X204414D01*
D11*
X154000Y274500D02*
D03*
Y458000D02*
D03*
X425000Y274500D02*
D03*
Y458000D02*
D03*
D12*
X323898Y318000D02*
D03*
X336102D02*
D03*
D13*
X293000Y290500D02*
D03*
X302500Y309500D02*
D03*
X255500Y308000D02*
D03*
X205000Y429000D02*
D03*
X184500Y412000D02*
D03*
X358500Y443000D02*
D03*
D14*
X303000Y290500D02*
D03*
X292500Y309500D02*
D03*
X265500Y308000D02*
D03*
X195000Y429000D02*
D03*
X368500Y443000D02*
D03*
D15*
X355500Y293500D02*
D03*
X325500D02*
D03*
X272500Y399000D02*
D03*
X203000Y357500D02*
D03*
X376500Y294000D02*
D03*
X406500D02*
D03*
D16*
X272500Y429000D02*
D03*
D17*
X163500Y406000D02*
D03*
Y436000D02*
D03*
X342000Y429500D02*
D03*
X312000D02*
D03*
X314500Y399500D02*
D03*
X344500D02*
D03*
X208000Y310000D02*
D03*
X178000D02*
D03*
D18*
X173000Y357500D02*
D03*
D19*
X184500Y402000D02*
D03*
D20*
X382000Y389500D02*
D03*
X387000Y384500D02*
D03*
D21*
Y394500D02*
D03*
D22*
X359000Y427500D02*
D03*
Y417500D02*
D03*
X230500Y414500D02*
D03*
Y424500D02*
D03*
D23*
X244500Y333000D02*
D03*
D24*
X254500D02*
D03*
X264500D02*
D03*
X274500D02*
D03*
X284500D02*
D03*
X294500D02*
D03*
X304500D02*
D03*
X314500D02*
D03*
X324500D02*
D03*
X334500D02*
D03*
X344500D02*
D03*
X354500D02*
D03*
X364500D02*
D03*
X374500D02*
D03*
X244500Y363000D02*
D03*
X254500D02*
D03*
X264500D02*
D03*
X274500D02*
D03*
X284500D02*
D03*
X294500D02*
D03*
X304500D02*
D03*
X314500D02*
D03*
X324500D02*
D03*
X334500D02*
D03*
X344500D02*
D03*
X354500D02*
D03*
X364500D02*
D03*
X374500D02*
D03*
D25*
X230500Y404500D02*
D03*
%TF.MD5,84620d55458493ba2834eea81153f57d*%
M02*
